<svg width="353" height="126" viewBox="0 0 353 126" fill="none" xmlns="http://www.w3.org/2000/svg">
<path d="M61.323 1.78086L61.4722 1.7746C61.4755 1.7746 61.4784 1.77697 61.4787 1.78055C61.4787 1.78414 61.4764 1.78683 61.4728 1.78713H61.4722L61.323 1.78086Z" fill="#3B945E"/>
<path d="M76.2991 1.26203L76.5956 1.25277C76.8871 1.24352 77.1309 1.47247 77.1401 1.76411C77.1494 2.05574 76.9205 2.29962 76.629 2.30887C76.6183 2.30917 76.6064 2.30917 76.5959 2.30887L76.2994 2.29962C76.0129 2.29066 75.7883 2.05097 75.7972 1.76471C75.8056 1.48949 76.0281 1.27128 76.2991 1.26203Z" fill="#3B945E"/>
<path d="M91.4228 0.86622L91.7194 0.860245C92.2278 0.849797 92.6482 1.25368 92.6583 1.76232C92.6688 2.27097 92.2651 2.69154 91.7567 2.70169C91.7454 2.70199 91.7304 2.70199 91.7191 2.70169L91.4225 2.69574C90.9177 2.68559 90.5167 2.26768 90.5268 1.76232C90.537 1.2701 90.9356 0.876668 91.4228 0.86622Z" fill="#3B945E"/>
<path d="M106.546 0.557604L106.843 0.552831C107.521 0.542085 108.079 1.08296 108.089 1.76115C108.1 2.43934 107.56 2.99755 106.882 3.0083C106.871 3.00859 106.854 3.0083 106.843 3.0083L106.546 3.0035C105.871 2.99276 105.333 2.43666 105.343 1.76115C105.353 1.09967 105.89 0.568947 106.546 0.557604Z" fill="#3B945E"/>
<path d="M121.67 0.335205L121.966 0.330723C122.767 0.319081 123.425 0.95877 123.437 1.75935C123.449 2.56022 122.809 3.21902 122.009 3.23066C121.997 3.23096 121.978 3.23066 121.966 3.23066L121.67 3.22618C120.872 3.21453 120.234 2.55783 120.246 1.75935C120.258 0.976083 120.892 0.347443 121.67 0.335205Z" fill="#3B945E"/>
<path d="M136.793 0.174939L137.09 0.172243C137.978 0.164482 138.704 0.878196 138.712 1.76653C138.719 2.65487 138.006 3.38143 137.118 3.38919C137.111 3.38919 137.096 3.38919 137.089 3.38919L136.793 3.38649C135.906 3.37873 135.194 2.65338 135.202 1.76653C135.21 0.889838 135.92 0.183297 136.793 0.174939Z" fill="#3B945E"/>
<path d="M151.917 0.05823L152.213 0.057319C153.165 0.0546325 153.938 0.823873 153.941 1.77579C153.944 2.72771 153.175 3.50172 152.223 3.50441H152.213L151.917 3.50351C150.966 3.50083 150.197 2.72711 150.2 1.77579C150.203 0.828052 150.971 0.061215 151.917 0.05823Z" fill="#3B945E"/>
<path d="M167.04 0.0134134L167.337 0.0125206C168.313 0.00953565 169.106 0.798771 169.109 1.77546C169.112 2.75186 168.323 3.54586 167.347 3.54885H167.337L167.04 3.54795C166.064 3.54497 165.276 2.75156 165.279 1.77546C165.282 0.803249 166.07 0.0166969 167.04 0.0134134Z" fill="#3B945E"/>
<path d="M182.164 0.000291504L182.46 0.000583008C183.443 0.00207551 184.238 0.800278 184.237 1.78324C184.235 2.7662 183.443 3.56199 182.46 3.5605L182.164 3.56079C181.181 3.56229 180.383 2.76649 180.381 1.78293C180.38 0.79967 181.175 0.001194 182.158 0L182.164 0.000291504Z" fill="#3B945E"/>
<path d="M197.287 0.0495605L197.584 0.0510545C198.539 0.0552335 199.309 0.833436 199.305 1.78864C199.301 2.73846 198.531 3.5059 197.584 3.51068L197.287 3.51186C196.331 3.51634 195.553 2.74473 195.549 1.78864C195.544 0.832541 196.316 0.054038 197.271 0.0495605H197.287Z" fill="#3B945E"/>
<path d="M212.411 0.16803L212.707 0.170708C213.596 0.178767 214.31 0.905918 214.302 1.79515C214.295 2.67423 213.582 3.38258 212.707 3.39093L212.411 3.39361C211.52 3.40167 210.792 2.68587 210.784 1.79515C210.776 0.904426 211.492 0.176089 212.382 0.16803C212.389 0.16803 212.404 0.16803 212.411 0.16803Z" fill="#3B945E"/>
<path d="M227.534 0.325078L227.831 0.32956C228.632 0.3415 229.272 1.00087 229.26 1.80235C229.248 2.58889 228.611 3.21993 227.831 3.23217L227.534 3.23635C226.731 3.24829 226.07 2.60621 226.058 1.80206C226.046 0.998195 226.687 0.336708 227.491 0.324768C227.503 0.325067 227.522 0.325078 227.534 0.325078Z" fill="#3B945E"/>
<path d="M242.658 0.548645L242.954 0.553127C243.632 0.563276 244.173 1.12088 244.163 1.79907C244.153 2.46443 243.614 2.99814 242.954 3.00859L242.658 3.01307C241.977 3.02322 241.418 2.47965 241.408 1.79907C241.398 1.11849 241.941 0.558794 242.621 0.548645C242.631 0.548645 242.647 0.548645 242.658 0.548645Z" fill="#3B945E"/>
<path d="M257.781 0.85612L258.078 0.862096C258.585 0.872543 258.987 1.29223 258.977 1.79968C258.967 2.2937 258.567 2.68861 258.078 2.69935L257.781 2.70533C257.271 2.71578 256.848 2.31042 256.838 1.79968C256.828 1.28895 257.233 0.866567 257.743 0.85612C257.755 0.855821 257.77 0.855821 257.781 0.85612Z" fill="#3B945E"/>
<path d="M272.905 1.2495L273.201 1.25875C273.489 1.26801 273.715 1.50889 273.706 1.79694C273.698 2.07335 273.474 2.29305 273.201 2.3023L272.905 2.31156C272.611 2.32081 272.366 2.09068 272.357 1.79725C272.348 1.50383 272.578 1.25846 272.871 1.24921C272.882 1.24921 272.894 1.2495 272.905 1.2495Z" fill="#3B945E"/>
<path d="M288.028 1.7746L288.177 1.78086L288.028 1.78713C288.025 1.78713 288.022 1.78474 288.021 1.78116C288.021 1.77787 288.024 1.7749 288.027 1.7746H288.028Z" fill="#3B945E"/>
<path d="M350.37 66.3882L350.204 68.4186L350.121 69.4335L349.99 70.4436L349.724 72.463L349.362 74.4674L349.178 75.4689L348.948 76.4611C348.793 77.122 348.648 77.7855 348.484 78.4437L347.93 80.4037C347.833 80.729 347.754 81.0598 347.643 81.3807L347.32 82.346C346.496 84.934 345.43 87.4381 344.269 89.8891L343.355 91.7079C343.049 92.3135 342.697 92.8947 342.371 93.489L341.872 94.3758C341.706 94.672 341.516 94.9535 341.339 95.2427L340.26 96.9674C334.29 106.033 325.932 113.489 316.255 118.372L314.431 119.266C313.816 119.549 313.189 119.808 312.569 120.08L311.637 120.483L310.687 120.844L308.785 121.557L306.853 122.183C306.53 122.284 306.211 122.4 305.884 122.488L304.905 122.754C304.25 122.926 303.601 123.121 302.942 123.275L300.959 123.712C300.301 123.871 299.63 123.969 298.964 124.086C298.295 124.192 297.632 124.33 296.96 124.409C295.615 124.565 294.275 124.759 292.923 124.827C292.247 124.867 291.574 124.94 290.898 124.953L288.869 124.998C288.189 125.02 287.528 125.01 286.861 125.01L284.864 125.005L252.901 124.931L125.053 124.634L61.1275 124.481L59.1163 124.426L58.1108 124.396L57.108 124.317L55.1024 124.16L53.1069 123.905L52.1095 123.776C51.7771 123.732 51.4489 123.661 51.1186 123.605L49.1393 123.246C48.482 123.115 47.8322 122.948 47.1784 122.8C46.5256 122.647 45.8704 122.505 45.2292 122.307L43.2961 121.753C42.6538 121.562 42.0251 121.327 41.3887 121.117C40.1096 120.712 38.8786 120.177 37.6293 119.692C35.1753 118.617 32.7454 117.471 30.4495 116.085L29.5795 115.582C29.2904 115.413 29.0141 115.223 28.7309 115.044L27.0419 113.955C26.4914 113.574 25.9505 113.178 25.4042 112.79L24.587 112.206L23.7972 111.585L22.2209 110.338L20.7055 109.019C20.4543 108.798 20.198 108.582 19.9507 108.356L19.2254 107.661C18.7441 107.196 18.2533 106.74 17.7798 106.267C14.0374 102.437 10.7253 98.1722 8.09073 93.5072L7.59246 92.6356L7.34333 92.1998L7.11508 91.7526L6.20417 89.9631L5.97772 89.5154L5.77215 89.0575L5.3607 88.1417C5.09456 87.5277 4.79262 86.9292 4.56318 86.2996L3.83129 84.4301C3.70359 84.1206 3.59558 83.8042 3.49175 83.486L3.1725 82.5344C2.71958 81.2741 2.38184 79.9783 2.01694 78.6912C1.92057 78.3706 1.84269 78.0455 1.77168 77.7184L1.54821 76.7402L1.32503 75.762L1.21375 75.2728L1.12662 74.7787C0.896583 73.4609 0.639989 72.1472 0.502742 70.8156C0.132174 68.1646 0.0346102 65.4858 0 62.8134L0.0551965 60.8083L0.082945 59.806L0.158433 58.806L0.315072 56.8067C0.383994 56.1419 0.481857 55.4804 0.563907 54.8171C0.705033 53.4867 0.98818 52.1781 1.21523 50.8614C1.33607 50.2041 1.51002 49.5579 1.65502 48.9056C1.81107 48.2561 1.94324 47.6003 2.14165 46.9615L2.69333 45.0344C2.77866 44.7111 2.89174 44.3965 2.99915 44.0804L3.32228 43.1318C3.72626 41.8572 4.24959 40.6265 4.73712 39.3829C5.7975 36.9325 6.94233 34.5117 8.31599 32.2198C8.95897 31.0482 9.71979 29.9485 10.4338 28.8205C10.8061 28.2665 11.2053 27.731 11.5899 27.1853L12.172 26.3707C12.3681 26.1006 12.5826 25.8444 12.787 25.5806L14.0276 24.0087L15.3386 22.4956L15.9956 21.7404L16.6872 21.0168L18.0731 19.5727C21.8856 15.8411 26.1235 12.5266 30.767 9.8956C33.065 8.54011 35.4847 7.40432 37.9387 6.36643L39.8005 5.63689L40.266 5.45452L40.7392 5.29392L41.6868 4.97572L42.6344 4.65751L43.1082 4.49842L43.5888 4.36139L45.513 3.81962C46.1503 3.6235 46.8076 3.5047 47.4547 3.34769L48.4289 3.12502C48.7532 3.0492 49.0778 2.97396 49.4072 2.92262C50.7203 2.69785 52.0272 2.43159 53.3534 2.29607C55.9927 1.91907 58.661 1.82565 61.3227 1.78027C58.6613 1.83818 55.9945 1.94386 53.3585 2.3328C52.0337 2.47459 50.729 2.74682 49.4183 2.97726C49.0895 3.0301 48.7657 3.10681 48.4417 3.18412L47.4697 3.41098C46.8237 3.57068 46.1679 3.69245 45.5324 3.89125L43.6133 4.44139L43.1341 4.5805L42.6618 4.7417L41.7172 5.06406L40.7726 5.38616L40.3009 5.54884L39.8369 5.73301L37.982 6.4697C35.5375 7.51713 33.1282 8.6613 30.8418 10.0245C26.222 12.6705 22.0124 15.9951 18.2309 19.7306L16.8567 21.1759L16.171 21.8998L15.52 22.6553L14.2212 24.1684L12.9931 25.7394C12.7908 26.003 12.5784 26.2591 12.3845 26.5289L11.8086 27.3429C11.4282 27.888 11.0332 28.4229 10.665 28.976C9.95967 30.1025 9.2075 31.2001 8.57288 32.3691C7.21622 34.6562 6.089 37.0698 5.04563 39.5119C4.56675 40.7512 4.05178 41.9769 3.65615 43.2461L3.33899 44.1906C3.23366 44.5055 3.12267 44.8186 3.03943 45.1404L2.49999 47.0585C2.30575 47.694 2.17746 48.3466 2.02559 48.9928C1.88476 49.6418 1.7147 50.2844 1.59744 50.9381C1.37814 52.248 1.10245 53.5488 0.968785 54.8712C0.890315 55.5306 0.796036 56.1879 0.730694 56.8484L0.584494 58.8347L0.513782 59.8278L0.491105 60.8233L0.445456 62.8143C0.492299 65.4676 0.601203 68.1258 0.981318 70.7544C1.12334 72.0749 1.38441 73.377 1.61832 74.6829L1.70694 75.1725L1.81942 75.6572L2.04528 76.6264L2.27114 77.5954C2.34305 77.9193 2.42152 78.2413 2.51879 78.5586C2.88667 79.8332 3.2271 81.1162 3.68181 82.3633L4.00255 83.3051C4.10698 83.6197 4.21528 83.9331 4.34358 84.2391L5.07725 86.0883C5.30729 86.7107 5.60953 87.3026 5.87597 87.9094L6.28772 88.8148L6.49359 89.2673L6.72004 89.71L7.63035 91.4783L7.8583 91.9201L8.10714 92.3505L8.60451 93.2114C11.2346 97.8191 14.5333 102.025 18.2524 105.796C18.7229 106.262 19.2104 106.711 19.6887 107.169L20.4093 107.853C20.6548 108.076 20.9093 108.287 21.159 108.505L22.6634 109.803L24.2274 111.028L25.0109 111.638L25.8216 112.212C26.3631 112.593 26.8996 112.981 27.4453 113.356L29.1197 114.424C29.4005 114.599 29.6738 114.786 29.9605 114.952L30.8225 115.445C33.0966 116.804 35.5023 117.924 37.9295 118.974C39.1653 119.447 40.3823 119.97 41.6468 120.364C42.2757 120.568 42.8969 120.798 43.5319 120.983L45.442 121.521C46.0751 121.713 46.7225 121.851 47.3673 121.998C48.013 122.141 48.6548 122.303 49.3037 122.429L51.2574 122.774C51.5835 122.828 51.9072 122.896 52.2354 122.938L53.2197 123.061L55.1883 123.303L57.1665 123.449L58.1555 123.522L59.147 123.546L61.1299 123.592L125.053 123.449L252.901 123.152L284.863 123.078L286.861 123.074C287.526 123.071 288.197 123.077 288.847 123.052L290.813 123C291.468 122.985 292.12 122.91 292.774 122.868C294.084 122.798 295.381 122.603 296.681 122.446C297.332 122.366 297.973 122.229 298.619 122.124C299.264 122.008 299.912 121.911 300.549 121.753L302.465 121.321C303.102 121.17 303.729 120.978 304.362 120.809L305.308 120.547C305.624 120.46 305.932 120.347 306.244 120.248L308.11 119.634L309.945 118.935L310.862 118.582L311.761 118.188C312.359 117.922 312.963 117.67 313.557 117.393L315.316 116.521C324.646 111.759 332.684 104.517 338.4 95.749L339.433 94.0809C339.602 93.8009 339.785 93.5293 339.942 93.2431L340.419 92.3858C340.731 91.8111 341.068 91.2503 341.36 90.6649L342.232 88.9082C343.339 86.5411 344.356 84.1254 345.137 81.6296L345.444 80.6989C345.55 80.3896 345.624 80.0705 345.715 79.7571L346.24 77.8682C346.395 77.2336 346.531 76.5942 346.679 75.9575L346.895 75.0017L347.067 74.037L347.407 72.1066L347.653 70.1618L347.776 69.1896L347.851 68.2123L348.002 66.258L350.37 66.3882Z" fill="#3B945E"/>
<path d="M345.578 66.3876C345.641 64.4053 347.298 62.8486 349.28 62.9113C351.261 62.974 352.817 64.6319 352.754 66.6142C352.692 68.5962 351.035 70.1529 349.053 70.0905C347.072 70.0278 345.516 68.3697 345.578 66.3876Z" fill="#3B945E"/>
</svg>
