<svg width="58" height="51" viewBox="0 0 58 51" fill="none" xmlns="http://www.w3.org/2000/svg">
<g filter="url(#filter0_b_46336_1192)">
<circle cx="24" cy="26" r="24" fill="white" fill-opacity="0.08"/>
</g>
<g clip-path="url(#clip0_46336_1192)">
<path d="M31.7167 17.0668C31.6605 17.1019 31.2984 17.45 30.9116 17.8367L30.212 18.5398L30.3667 18.6734C30.5495 18.8316 32.0402 20.3187 32.3636 20.6668L32.5886 20.9094L33.3058 20.1922C33.7031 19.7984 34.0476 19.4363 34.0757 19.3836C34.139 19.2605 34.139 18.9933 34.0757 18.8703C34.0124 18.7578 32.346 17.0949 32.237 17.0387C32.114 16.9754 31.8363 16.993 31.7167 17.0668Z" fill="#3B945E"/>
<path d="M22.0312 18.1883C21.8238 18.2902 21.75 18.4871 21.75 18.9406C21.75 19.3871 21.7922 19.5137 21.9785 19.6578C22.1473 19.7844 22.432 19.7984 22.5832 19.6859C22.8047 19.5207 22.8398 19.4223 22.8398 18.9371C22.8398 18.5574 22.8293 18.4765 22.7695 18.3781C22.6219 18.139 22.2984 18.0547 22.0312 18.1883Z" fill="white"/>
<path d="M26.8476 18.7051C26.4609 18.7824 26.032 18.9617 25.6875 19.1832C25.4343 19.3484 25.1847 19.5664 24.6257 20.1183C24.225 20.5156 23.8734 20.8918 23.8453 20.9551C23.782 21.0886 23.7714 21.2785 23.8242 21.4191C23.8734 21.5527 29.5371 27.2234 29.6847 27.2867C29.8324 27.35 30.0257 27.35 30.1699 27.2797C30.2332 27.2515 30.6093 26.9 31.0031 26.4992C31.9347 25.5605 32.1843 25.1844 32.3882 24.432C32.4937 24.0523 32.4832 23.0961 32.3742 22.7129C32.2687 22.3437 32.0261 21.8551 31.8082 21.5703C31.7132 21.4437 31.1859 20.8953 30.6375 20.3539C29.5757 19.2992 29.3472 19.1164 28.8269 18.8984C28.4261 18.7297 27.9972 18.6523 27.498 18.6558C27.266 18.6594 26.9742 18.6804 26.8476 18.7051Z" fill="#3B945E"/>
<path d="M18.8777 19.4961C18.6281 19.6086 18.5015 19.8933 18.5859 20.1535C18.6492 20.3433 19.1554 20.8461 19.3417 20.9023C19.7531 21.0254 20.1503 20.6316 20.0273 20.2238C19.9781 20.0515 19.5492 19.5945 19.3453 19.4996C19.1624 19.4082 19.0675 19.4082 18.8777 19.4961Z" fill="white"/>
<path d="M17.5418 22.6918C17.1516 22.8746 17.1445 23.4582 17.5312 23.6516C17.6262 23.7008 17.7457 23.7148 18.0726 23.7148C18.5402 23.7148 18.6949 23.6621 18.8144 23.4617C18.9023 23.3105 18.8988 23.0012 18.8074 22.8781C18.6527 22.6672 18.5789 22.6426 18.1183 22.632C17.7527 22.625 17.6683 22.632 17.5418 22.6918Z" fill="white"/>
<path d="M23.1141 23.3457C22.8961 23.4266 22.7027 23.5812 22.2527 24.0383L21.8203 24.4707L22.6395 25.2898L23.4586 26.1055L23.9543 25.6063C24.2355 25.318 24.4816 25.0367 24.5309 24.9453C24.6398 24.7273 24.6645 24.2879 24.5801 24.0348C24.5063 23.8098 24.2566 23.5285 24.0211 23.409C23.7996 23.293 23.3285 23.2613 23.1141 23.3457Z" fill="white"/>
<path d="M20.0765 24.7203C20.0132 24.7484 19.6405 25.1035 19.2433 25.5008C18.3151 26.4394 18.0655 26.8156 17.8616 27.568C17.7561 27.9476 17.7667 28.9039 17.8757 29.2871C17.9811 29.6562 18.2237 30.1449 18.4417 30.4297C18.6983 30.7637 20.5686 32.6058 20.8323 32.7851C21.3772 33.1508 21.894 33.3125 22.5972 33.3371C23.1386 33.3582 23.455 33.3125 23.9436 33.1332C24.4569 32.9469 24.812 32.6832 25.6241 31.8816C26.0249 31.4844 26.3765 31.1082 26.4046 31.0449C26.4749 30.9008 26.4749 30.7074 26.4116 30.5598C26.3483 30.4121 20.6776 24.7484 20.544 24.6992C20.4034 24.65 20.203 24.657 20.0765 24.7203Z" fill="#3B945E"/>
<path d="M26.3168 26.5414C26.0918 26.6223 25.9617 26.7242 25.4871 27.2023L25.0195 27.6699L25.8387 28.4891L26.6578 29.3082L27.15 28.8055C27.7195 28.2254 27.8074 28.0848 27.825 27.698C27.8461 27.3113 27.7652 27.0898 27.5016 26.8226C27.3504 26.6715 27.2344 26.5906 27.1148 26.5519C26.9074 26.4816 26.4961 26.4746 26.3168 26.5414Z" fill="white"/>
<path d="M31.6991 28.3133C31.3511 28.468 31.2562 28.932 31.5163 29.2098C31.6394 29.3398 31.7906 29.375 32.2089 29.375C32.5077 29.375 32.5886 29.3609 32.7187 29.2941C33.0843 29.1113 33.1019 28.5699 32.7468 28.3555C32.6448 28.2957 32.571 28.2852 32.1913 28.2887C31.9488 28.2887 31.7273 28.2992 31.6991 28.3133Z" fill="white"/>
<path d="M30.5567 31.1152C30.2895 31.2102 30.1418 31.5055 30.2227 31.7832C30.2824 31.9836 30.7816 32.4793 30.9891 32.5391C31.3899 32.6621 31.7871 32.2684 31.6676 31.8676C31.6149 31.6883 31.1895 31.2348 30.982 31.1363C30.8098 31.052 30.7465 31.0484 30.5567 31.1152Z" fill="white"/>
<path d="M16.9265 31.8254C16.5292 32.2297 16.1847 32.5918 16.1636 32.634C16.1144 32.7324 16.1144 33.0137 16.1636 33.1121C16.2199 33.2211 17.8828 34.8875 17.9953 34.9508C18.1183 35.0141 18.3855 35.0141 18.5085 34.9508C18.5613 34.9226 18.9269 34.5746 19.3171 34.1808L20.0343 33.4637L19.8269 33.2738C19.4332 32.9117 18.0726 31.5512 17.8828 31.3297C17.7773 31.2031 17.6824 31.1012 17.6718 31.1012C17.6613 31.0976 17.3273 31.4246 16.9265 31.8254Z" fill="#3B945E"/>
<path d="M27.7828 32.2578C27.7266 32.2754 27.6422 32.3246 27.5965 32.3703C27.4348 32.5215 27.4102 32.6129 27.4102 33.0734C27.4102 33.4426 27.4207 33.5234 27.4805 33.6219C27.6949 33.9769 28.2363 33.9594 28.4227 33.5937C28.4895 33.4601 28.5 33.3828 28.5 33.0594C28.5 32.8133 28.4824 32.6375 28.4508 32.5601C28.3523 32.3246 28.0324 32.1804 27.7828 32.2578Z" fill="white"/>
</g>
<mask id="path-14-inside-1_46336_1192" fill="white">
<path d="M42.1359 51C47.0489 48.5587 51.1455 44.8211 53.9509 40.2205C56.7562 35.6199 58.1555 30.3447 57.9863 25.0065C57.8171 19.6683 56.0865 14.4859 52.995 10.0599C49.9036 5.63399 45.578 2.14587 40.5197 0L40 1.14515C44.8344 3.19605 48.9686 6.52976 51.9232 10.7598C54.8778 14.9898 56.5318 19.9429 56.6935 25.0448C56.8552 30.1467 55.5179 35.1884 52.8367 39.5854C50.1555 43.9824 46.2402 47.5546 41.5447 49.8878L42.1359 51Z"/>
</mask>
<path d="M42.1359 51L35.9549 54.2856L39.1517 60.2995L45.2509 57.2687L42.1359 51ZM40.5197 0L43.2535 -6.4441L36.9673 -9.11088L34.1454 -2.89279L40.5197 0ZM40 1.14515L33.6257 -1.74764L30.6602 4.7868L37.2662 7.58926L40 1.14515ZM41.5447 49.8878L38.4297 43.619L31.9868 46.8206L35.3637 53.1734L41.5447 49.8878ZM45.2509 57.2687C51.3234 54.2512 56.4217 49.614 59.9274 43.8648L47.9744 36.5761C45.8693 40.0283 42.7743 42.8662 39.021 44.7313L45.2509 57.2687ZM59.9274 43.8648C63.4347 38.1131 65.1955 31.4962 64.9828 24.7848L50.9898 25.2282C51.1155 29.1931 50.0778 33.1266 47.9744 36.5761L59.9274 43.8648ZM64.9828 24.7848C64.7701 18.0735 62.594 11.5781 58.7338 6.05153L47.2563 14.0683C49.579 17.3936 50.8641 21.2631 50.9898 25.2282L64.9828 24.7848ZM58.7338 6.05153C54.8753 0.527494 49.4996 -3.79433 43.2535 -6.4441L37.7859 6.4441C41.6564 8.08608 44.9319 10.7405 47.2563 14.0683L58.7338 6.05153ZM34.1454 -2.89279L33.6257 -1.74764L46.3743 4.03794L46.894 2.89279L34.1454 -2.89279ZM37.2662 7.58926C40.9128 9.13625 43.9969 11.6363 46.1845 14.7682L57.6619 6.75141C53.9403 1.42327 48.756 -2.74416 42.7338 -5.29895L37.2662 7.58926ZM46.1845 14.7682C48.3703 17.8976 49.5788 21.5377 49.697 25.2665L63.69 24.8231C63.4848 18.3481 61.3853 12.0821 57.6619 6.75141L46.1845 14.7682ZM49.697 25.2665C49.8152 28.9951 48.8395 32.6951 46.8602 35.941L58.8132 43.2297C62.1963 37.6817 63.8952 31.2983 63.69 24.8231L49.697 25.2665ZM46.8602 35.941C44.8793 39.1895 41.9656 41.862 38.4297 43.619L44.6597 56.1565C50.5147 53.2471 55.4316 48.7752 58.8132 43.2297L46.8602 35.941ZM35.3637 53.1734L35.9549 54.2856L48.3169 47.7144L47.7257 46.6021L35.3637 53.1734Z" fill="#3B945E" mask="url(#path-14-inside-1_46336_1192)"/>
<defs>
<filter id="filter0_b_46336_1192" x="-150" y="-148" width="348" height="348" filterUnits="userSpaceOnUse" color-interpolation-filters="sRGB">
<feFlood flood-opacity="0" result="BackgroundImageFix"/>
<feGaussianBlur in="BackgroundImageFix" stdDeviation="75"/>
<feComposite in2="SourceAlpha" operator="in" result="effect1_backgroundBlur_46336_1192"/>
<feBlend mode="normal" in="SourceGraphic" in2="effect1_backgroundBlur_46336_1192" result="shape"/>
</filter>
<clipPath id="clip0_46336_1192">
<rect width="18" height="18" fill="white" transform="translate(16.125 17)"/>
</clipPath>
</defs>
</svg>
