<svg width="58" height="51" viewBox="0 0 58 51" fill="none" xmlns="http://www.w3.org/2000/svg">
<g filter="url(#filter0_b_46336_1185)">
<circle cx="24" cy="26" r="24" fill="white" fill-opacity="0.08"/>
</g>
<g clip-path="url(#clip0_46336_1185)">
<path d="M23.5905 17.0838C23.5109 17.1635 23.5067 17.2221 23.5067 18.1736C23.5067 19.1251 23.5109 19.1838 23.5905 19.2634C23.645 19.3179 23.7289 19.3472 23.842 19.3472C23.9552 19.3472 24.039 19.3179 24.0935 19.2634C24.1732 19.1838 24.1774 19.1251 24.1774 18.1736C24.1774 17.2221 24.1732 17.1635 24.0935 17.0838C24.039 17.0293 23.9552 17 23.842 17C23.7289 17 23.645 17.0293 23.5905 17.0838Z" fill="white"/>
<path d="M20.2374 17.7545C20.1578 17.8341 20.1536 17.8928 20.1536 18.8443C20.1536 19.7957 20.1578 19.8544 20.2374 19.9341C20.2919 19.9885 20.3757 20.0179 20.4889 20.0179C20.6021 20.0179 20.6859 19.9885 20.7404 19.9341C20.82 19.8544 20.8242 19.7957 20.8242 18.8443C20.8242 17.8928 20.82 17.8341 20.7404 17.7545C20.6859 17.7 20.6021 17.6706 20.4889 17.6706C20.3757 17.6706 20.2919 17.7 20.2374 17.7545Z" fill="white"/>
<path d="M26.9438 17.7545C26.8642 17.8341 26.86 17.8928 26.86 18.8443C26.86 19.7957 26.8642 19.8544 26.9438 19.9341C26.9983 19.9885 27.0821 20.0179 27.1953 20.0179C27.3085 20.0179 27.3923 19.9885 27.4468 19.9341C27.5264 19.8544 27.5306 19.7957 27.5306 18.8443C27.5306 17.8928 27.5264 17.8341 27.4468 17.7545C27.3923 17.7 27.3085 17.6706 27.1953 17.6706C27.0821 17.6706 26.9983 17.7 26.9438 17.7545Z" fill="white"/>
<path d="M22.8697 20.0849C21.7757 20.282 20.7907 20.8101 19.9985 21.6232C19.3782 22.2603 18.98 22.9142 18.7285 23.698C18.5189 24.3393 18.4644 24.7669 18.4854 25.5507C18.4979 25.9321 18.5189 26.2758 18.5399 26.3135C18.565 26.3806 18.6447 26.389 19.2692 26.389H19.9734L19.9105 26.104C19.8183 25.6513 19.8644 24.7501 20.0027 24.2723C20.4302 22.8388 21.6164 21.7616 23.0835 21.464C23.5613 21.3634 24.4415 21.3969 24.8858 21.5268C26.0175 21.8538 26.9271 22.6124 27.4259 23.6435C27.7067 24.222 27.7863 24.5531 27.8115 25.2363C27.8241 25.6513 27.8157 25.907 27.7738 26.104L27.7109 26.389H28.4151C29.0396 26.389 29.1192 26.3806 29.1444 26.3135C29.1653 26.2758 29.1863 25.9321 29.1989 25.5507C29.2115 25.0351 29.1989 24.7627 29.1486 24.4735C29.0103 23.6687 28.6833 22.8807 28.2181 22.2352C27.9372 21.8496 27.3253 21.2418 26.9397 20.9694C26.3361 20.5418 25.5313 20.2107 24.781 20.0808C24.3283 20.0011 23.314 20.0053 22.8697 20.0849Z" fill="white"/>
<path d="M23.0039 22.1178C21.7967 22.4322 20.8746 23.3627 20.5686 24.5824C20.4931 24.8842 20.4848 25.0184 20.5015 25.5046C20.5099 25.8189 20.5434 26.1459 20.5686 26.2297L20.6189 26.389H22.5637H24.5128V26.1962C24.5128 26.0327 24.4918 25.9824 24.3787 25.8692C24.2487 25.7393 24.2194 25.7309 23.8296 25.7058C23.1925 25.6639 22.853 25.471 22.6434 25.0267C22.3584 24.4274 22.6727 23.6897 23.3056 23.4633C23.4985 23.3962 23.5068 23.3879 23.5068 23.2328C23.5068 22.8765 23.6787 22.6921 23.9511 22.7591C24.0769 22.7927 24.1775 22.9981 24.1775 23.2244V23.3711H24.4918C25.0074 23.3711 25.2002 23.5052 25.1248 23.8154C25.0787 23.9998 24.89 24.0417 24.1314 24.0417H23.4565L23.314 24.1842C23.1883 24.31 23.1715 24.3519 23.1715 24.5447C23.1715 24.7333 23.1883 24.7794 23.3098 24.8968C23.4356 25.0267 23.4649 25.0351 23.8547 25.0603C24.3451 25.0938 24.6134 25.1944 24.8314 25.4333C25.0367 25.6639 25.1415 25.907 25.1415 26.1668V26.389H26.1056H27.0654L27.1157 26.2297C27.1409 26.1459 27.1744 25.8189 27.1828 25.5046C27.1996 25.0184 27.1912 24.8842 27.1157 24.5824C26.8056 23.3543 25.8792 22.4238 24.6637 22.1136C24.2152 22.0005 23.4482 22.0005 23.0039 22.1178Z" fill="white"/>
<path d="M16.9345 23.7944C16.0794 24.1256 15.8447 25.3453 16.507 26.0117C16.7878 26.2884 17.0645 26.389 17.5507 26.389H17.9195L17.8818 26.1459C17.8566 26.0159 17.8525 25.5842 17.8608 25.1944C17.8818 24.5657 17.9153 24.3058 18.0369 23.8196L18.0662 23.7064L17.6135 23.7106C17.2573 23.7106 17.1064 23.7316 16.9345 23.7944Z" fill="#3B945E"/>
<path d="M29.6474 23.8196C29.7689 24.3058 29.8025 24.5657 29.8234 25.1944C29.8318 25.5842 29.8276 26.0159 29.8025 26.1459L29.7647 26.389H30.6617H31.5545V25.5716C31.5545 24.595 31.5084 24.419 31.1773 24.0837C30.8839 23.7944 30.6282 23.7064 30.0623 23.7064H29.618L29.6474 23.8196Z" fill="#3B945E"/>
<path d="M16.138 31.2218L16.1506 35.9247L16.2722 36.1762C16.4314 36.4989 16.75 36.8175 17.0727 36.9767L17.3242 37.0983H24.5127H31.7011L31.9526 36.9767C32.2753 36.8175 32.5939 36.4989 32.7532 36.1762C32.8747 35.9247 32.8747 35.9247 32.8873 35.0151L32.8999 34.1097L31.3993 34.093C30.1209 34.0762 29.8652 34.0636 29.6682 34.0008C28.809 33.7283 28.2431 32.9697 28.2431 32.0936C28.2431 31.3978 28.5784 30.7901 29.1694 30.4086C29.6137 30.1236 29.7353 30.1069 31.3993 30.0859L32.8999 30.0691L32.8873 29.1638C32.8747 28.2542 32.8747 28.2542 32.7532 28.0027C32.5939 27.68 32.2753 27.3614 31.9526 27.2021L31.7011 27.0806L24.4288 27.0596L17.1566 27.0387L16.8799 26.9465C16.729 26.892 16.4985 26.7746 16.3686 26.6824L16.1296 26.5147L16.138 31.2218Z" fill="#3B945E"/>
<path d="M29.6767 30.8362C29.5426 30.8907 29.3791 30.9996 29.2534 31.1254C28.5827 31.796 28.8216 33.02 29.6893 33.3427C29.9114 33.4265 30.0036 33.4307 31.6593 33.4307C33.3443 33.4307 33.403 33.4265 33.4826 33.3469C33.5622 33.2673 33.5664 33.2086 33.5664 32.0894C33.5664 30.9703 33.5622 30.9116 33.4826 30.832C33.403 30.7523 33.3443 30.7482 31.6509 30.7523C29.9953 30.7523 29.8863 30.7565 29.6767 30.8362Z" fill="#3B945E"/>
</g>
<mask id="path-11-inside-1_46336_1185" fill="white">
<path d="M42.1359 51C47.0489 48.5587 51.1455 44.8211 53.9509 40.2205C56.7562 35.6199 58.1555 30.3447 57.9863 25.0065C57.8171 19.6683 56.0865 14.4859 52.995 10.0599C49.9036 5.63399 45.578 2.14587 40.5197 0L40 1.14515C44.8344 3.19605 48.9686 6.52976 51.9232 10.7598C54.8778 14.9898 56.5318 19.9429 56.6935 25.0448C56.8552 30.1467 55.5179 35.1884 52.8367 39.5854C50.1555 43.9824 46.2402 47.5546 41.5447 49.8878L42.1359 51Z"/>
</mask>
<path d="M42.1359 51L35.9549 54.2856L39.1517 60.2995L45.2509 57.2687L42.1359 51ZM40.5197 0L43.2535 -6.4441L36.9673 -9.11088L34.1454 -2.89279L40.5197 0ZM40 1.14515L33.6257 -1.74764L30.6602 4.7868L37.2662 7.58926L40 1.14515ZM41.5447 49.8878L38.4297 43.619L31.9868 46.8206L35.3637 53.1734L41.5447 49.8878ZM45.2509 57.2687C51.3234 54.2512 56.4217 49.614 59.9274 43.8648L47.9744 36.5761C45.8693 40.0283 42.7743 42.8662 39.021 44.7313L45.2509 57.2687ZM59.9274 43.8648C63.4347 38.1131 65.1955 31.4962 64.9828 24.7848L50.9898 25.2282C51.1155 29.1931 50.0778 33.1266 47.9744 36.5761L59.9274 43.8648ZM64.9828 24.7848C64.7701 18.0735 62.594 11.5781 58.7338 6.05153L47.2563 14.0683C49.579 17.3936 50.8641 21.2631 50.9898 25.2282L64.9828 24.7848ZM58.7338 6.05153C54.8753 0.527494 49.4996 -3.79433 43.2535 -6.4441L37.7859 6.4441C41.6564 8.08608 44.9319 10.7405 47.2563 14.0683L58.7338 6.05153ZM34.1454 -2.89279L33.6257 -1.74764L46.3743 4.03794L46.894 2.89279L34.1454 -2.89279ZM37.2662 7.58926C40.9128 9.13625 43.9969 11.6363 46.1845 14.7682L57.6619 6.75141C53.9403 1.42327 48.756 -2.74416 42.7338 -5.29895L37.2662 7.58926ZM46.1845 14.7682C48.3703 17.8976 49.5788 21.5377 49.697 25.2665L63.69 24.8231C63.4848 18.3481 61.3853 12.0821 57.6619 6.75141L46.1845 14.7682ZM49.697 25.2665C49.8152 28.9951 48.8395 32.6951 46.8602 35.941L58.8132 43.2297C62.1963 37.6817 63.8952 31.2983 63.69 24.8231L49.697 25.2665ZM46.8602 35.941C44.8793 39.1895 41.9656 41.862 38.4297 43.619L44.6597 56.1565C50.5147 53.2471 55.4316 48.7752 58.8132 43.2297L46.8602 35.941ZM35.3637 53.1734L35.9549 54.2856L48.3169 47.7144L47.7257 46.6021L35.3637 53.1734Z" fill="#3B945E" mask="url(#path-11-inside-1_46336_1185)"/>
<defs>
<filter id="filter0_b_46336_1185" x="-150" y="-148" width="348" height="348" filterUnits="userSpaceOnUse" color-interpolation-filters="sRGB">
<feFlood flood-opacity="0" result="BackgroundImageFix"/>
<feGaussianBlur in="BackgroundImageFix" stdDeviation="75"/>
<feComposite in2="SourceAlpha" operator="in" result="effect1_backgroundBlur_46336_1185"/>
<feBlend mode="normal" in="SourceGraphic" in2="effect1_backgroundBlur_46336_1185" result="shape"/>
</filter>
<clipPath id="clip0_46336_1185">
<rect width="18" height="18" fill="white" transform="translate(15 17)"/>
</clipPath>
</defs>
</svg>
