<svg width="227" height="4" viewBox="0 0 227 4" fill="none" xmlns="http://www.w3.org/2000/svg">
<path d="M0 1.99984L0.149182 1.9928C0.152762 1.9928 0.155439 1.99549 0.155738 1.99951C0.155738 2.0032 0.153363 2.00655 0.149783 2.00655H0.149182L0 1.99984Z" fill="#3B945E"/>
<path d="M14.9853 1.41719L15.2819 1.4068C15.5734 1.3964 15.8172 1.65358 15.8261 1.98116C15.8354 2.30874 15.6065 2.58265 15.315 2.59305C15.3043 2.59338 15.2924 2.59338 15.2819 2.59305L14.9853 2.58269C14.6989 2.57263 14.4742 2.30335 14.4832 1.98181C14.4919 1.67267 14.7144 1.42759 14.9853 1.41719Z" fill="#3B945E"/>
<path d="M30.1189 0.972755L30.4157 0.966043C30.9244 0.954308 31.3451 1.40795 31.3552 1.97928C31.3657 2.55062 30.9617 3.02303 30.453 3.03443C30.4416 3.03477 30.4267 3.03477 30.4154 3.03443L30.1186 3.02772C29.6134 3.01632 29.2122 2.54693 29.2223 1.97928C29.2328 1.42639 29.6314 0.984491 30.1189 0.972755Z" fill="#3B945E"/>
<path d="M45.2521 0.6259L45.5488 0.620538C46.2271 0.608468 46.7854 1.21601 46.7962 1.97779C46.8069 2.73957 46.2659 3.36655 45.5876 3.37863C45.5766 3.37896 45.5598 3.37863 45.5488 3.37863L45.2521 3.37326C44.5764 3.36119 44.0375 2.73655 44.048 1.97779C44.0587 1.23478 44.5949 0.638641 45.2521 0.6259Z" fill="#3B945E"/>
<path d="M60.3852 0.376304L60.682 0.371269C61.483 0.358193 62.1419 1.07673 62.1536 1.97598C62.1652 2.87556 61.5257 3.61553 60.7247 3.62861C60.7127 3.62894 60.6939 3.62861 60.682 3.62861L60.3852 3.62357C59.5866 3.6105 58.9489 2.87288 58.9605 1.97598C58.9722 1.09617 59.6072 0.390051 60.3852 0.376304Z" fill="#3B945E"/>
<path d="M75.5184 0.196214L75.8152 0.193186C76.7037 0.184468 77.4304 0.98617 77.4381 1.984C77.4459 2.98182 76.732 3.79789 75.8435 3.80661C75.837 3.80661 75.8217 3.80661 75.8149 3.80661L75.5181 3.80362C74.6311 3.7949 73.9184 2.98015 73.9262 1.984C73.9346 0.999247 74.6451 0.205603 75.5184 0.196214Z" fill="#3B945E"/>
<path d="M90.6516 0.064996L90.9484 0.0639727C91.9005 0.0609551 92.6746 0.925027 92.6773 1.99427C92.68 3.06351 91.9106 3.93289 90.9585 3.9359H90.9484L90.6516 3.93492C89.7001 3.9319 88.931 3.06284 88.9337 1.99427C88.9367 0.929721 89.7052 0.0683489 90.6516 0.064996Z" fill="#3B945E"/>
<path d="M105.785 0.0147046L106.082 0.0136814C107.058 0.0103284 107.852 0.897175 107.855 1.99391C107.858 3.09065 107.069 3.98254 106.092 3.98589H106.082L105.785 3.98486C104.809 3.98151 104.02 3.09031 104.023 1.99391C104.025 0.901869 104.814 0.0183928 105.785 0.0147046Z" fill="#3B945E"/>
<path d="M120.918 0L121.215 0.000654865C122.198 0.00233132 122.994 0.898915 122.993 2.00303C122.991 3.10714 122.198 4.00102 121.215 3.99934L120.918 4C119.935 4.00167 119.136 3.10781 119.135 2.00303C119.133 0.898579 119.929 0.00167645 120.913 0H120.918Z" fill="#3B945E"/>
<path d="M136.051 0.0554199L136.348 0.057098C137.304 0.0617921 138.075 0.935911 138.071 2.00884C138.066 3.07574 137.296 3.93774 136.348 3.94311L136.051 3.94479C135.095 3.94948 134.316 3.08311 134.312 2.00917C134.308 0.935232 135.079 0.0607767 136.036 0.0557474L136.051 0.0554199Z" fill="#3B945E"/>
<path d="M151.184 0.188477L151.481 0.191505C152.371 0.200558 153.085 1.01733 153.077 2.01616C153.07 3.0036 152.357 3.79922 151.481 3.80861L151.184 3.81164C150.294 3.82069 149.565 3.01667 149.557 2.01616C149.549 1.01566 150.265 0.197529 151.156 0.188477C151.162 0.188477 151.178 0.188477 151.184 0.188477Z" fill="#3B945E"/>
<path d="M166.318 0.364651L166.615 0.369685C167.416 0.383097 168.057 1.12378 168.045 2.02404C168.033 2.90753 167.396 3.61631 166.615 3.63005L166.318 3.63509C165.514 3.6485 164.852 2.92731 164.84 2.02404C164.828 1.1211 165.47 0.378063 166.275 0.364651C166.287 0.364316 166.305 0.364651 166.318 0.364651Z" fill="#3B945E"/>
<path d="M181.451 0.615967L181.748 0.621001C182.426 0.632401 182.968 1.25875 182.957 2.02053C182.948 2.76789 182.408 3.36739 181.748 3.37913L181.451 3.38412C180.77 3.39552 180.21 2.78499 180.2 2.02053C180.19 1.25607 180.734 0.627367 181.414 0.615967C181.425 0.615967 181.441 0.615967 181.451 0.615967Z" fill="#3B945E"/>
<path d="M196.584 0.961189L196.881 0.967901C197.388 0.979637 197.791 1.45105 197.781 2.02105C197.771 2.57595 197.37 3.01956 196.881 3.03163L196.584 3.0383C196.073 3.05003 195.651 2.59473 195.64 2.02105C195.63 1.44736 196.035 0.972924 196.546 0.961189C196.558 0.960854 196.573 0.960854 196.584 0.961189Z" fill="#3B945E"/>
<path d="M211.717 1.4034L212.013 1.4138C212.301 1.42419 212.528 1.69477 212.519 2.01832C212.51 2.3288 212.286 2.57557 212.013 2.58597L211.717 2.59636C211.424 2.60676 211.179 2.34824 211.169 2.01865C211.16 1.68906 211.39 1.41347 211.683 1.40308C211.694 1.40308 211.706 1.4034 211.717 1.4034Z" fill="#3B945E"/>
<path d="M226.851 1.99292L227 1.99996L226.851 2.007C226.847 2.007 226.844 2.00431 226.844 2.00029C226.844 1.99626 226.847 1.99326 226.85 1.99292H226.851Z" fill="#3B945E"/>
</svg>
