<svg width="58" height="51" viewBox="0 0 58 51" fill="none" xmlns="http://www.w3.org/2000/svg">
<g filter="url(#filter0_b_55121_1000)">
<circle cx="24" cy="26" r="24" fill="white" fill-opacity="0.08"/>
</g>
<g clip-path="url(#clip0_55121_1000)">
<path d="M18.934 17.0141C18.927 17.0211 18.825 17.0387 18.7125 17.0527C18.2625 17.1019 17.5629 17.3762 17.0918 17.6855C16.7016 17.9422 16.0969 18.5363 15.8614 18.8984C15.5625 19.3555 15.3551 19.8582 15.2039 20.4805C15.1688 20.6352 15.1582 21.6934 15.1582 26C15.1582 31.8816 15.1442 31.4598 15.3762 32.1172C15.6118 32.7781 15.8965 33.2211 16.4063 33.7344C16.9407 34.2687 17.4504 34.5887 18.1149 34.7996C18.7547 35.007 18.5719 35 24.0141 35C29.3368 35 29.161 35.0035 29.7832 34.8348C30.1594 34.7328 30.8801 34.3672 31.1789 34.1281C32.0016 33.4672 32.5465 32.5883 32.7961 31.5195C32.8313 31.3684 32.8418 30.2117 32.8418 26.0352C32.8418 20.2062 32.8559 20.5684 32.6274 19.8898C32.5289 19.591 32.2688 19.0672 32.1317 18.8879C32.0754 18.8176 31.9875 18.6945 31.9278 18.6137C31.8715 18.5363 31.6852 18.3394 31.52 18.1812C31.2493 17.9281 31.1332 17.8402 30.6762 17.5379C30.6094 17.4922 30.402 17.3973 30.2192 17.3234C29.9309 17.2039 29.7551 17.1512 29.3262 17.0457C29.2172 17.0176 18.9622 16.9859 18.934 17.0141ZM25.575 20.4523C25.6067 20.484 25.6172 21.0711 25.6172 22.8781V25.2582L26.5102 25.2687C27.5051 25.2793 27.5016 25.2793 27.6106 25.5359C27.7266 25.8102 27.7688 25.7539 25.8493 27.677C24.4641 29.0691 24.0704 29.4453 24 29.4453C23.9297 29.4453 23.536 29.0691 22.1508 27.677C20.2313 25.7539 20.2735 25.8102 20.3895 25.5359C20.4985 25.2793 20.495 25.2793 21.4899 25.2687L22.3829 25.2582V22.8781C22.3829 21.0711 22.3934 20.484 22.425 20.4523C22.4848 20.3926 25.5153 20.3926 25.575 20.4523ZM27.5579 30.4191C27.6141 30.4684 27.6211 30.5352 27.6211 30.9922C27.6211 31.3437 27.6071 31.5195 27.5789 31.5477C27.5192 31.6074 20.4809 31.6074 20.4211 31.5477C20.393 31.5195 20.3789 31.3473 20.3789 30.9957C20.3789 30.5738 20.3895 30.4789 20.4387 30.4227C20.4914 30.3629 20.6497 30.3594 23.993 30.3594C27.1993 30.3594 27.4981 30.3629 27.5579 30.4191Z" fill="#3B945E"/>
<path d="M22.1543 27.6875C23.1 28.6367 23.884 29.4102 23.8945 29.4102C23.9051 29.4102 23.1351 28.6367 22.1894 27.6875C21.2437 26.7383 20.4598 25.9648 20.4492 25.9648C20.4387 25.9648 21.2086 26.7383 22.1543 27.6875Z" fill="#40C1C1"/>
<path d="M25.8105 27.6945L24.0879 29.4277L25.8211 27.7051C27.4277 26.1055 27.5648 25.9648 27.5402 25.9648C27.5367 25.9648 26.7563 26.7453 25.8105 27.6945Z" fill="#40C1C1"/>
<path d="M21.1453 25.2863C21.3844 25.2934 21.7641 25.2934 21.9891 25.2863C22.2141 25.2828 22.0207 25.2758 21.5566 25.2758C21.0926 25.2758 20.9063 25.2828 21.1453 25.2863Z" fill="#C1ECEC"/>
<path d="M26.032 25.2863C26.2711 25.2934 26.6508 25.2934 26.8758 25.2863C27.1008 25.2828 26.9074 25.2758 26.4434 25.2758C25.9793 25.2758 25.793 25.2828 26.032 25.2863Z" fill="#C1ECEC"/>
<path d="M22.1719 27.6699C23.1281 28.6262 23.9191 29.4102 23.9297 29.4102C23.9402 29.4102 23.1633 28.6262 22.207 27.6699C21.2508 26.7137 20.4597 25.9297 20.4492 25.9297C20.4387 25.9297 21.2156 26.7137 22.1719 27.6699Z" fill="#C1ECEC"/>
<path d="M25.793 27.677L24.0527 29.4277L25.8035 27.6875C27.4277 26.0703 27.5648 25.9297 27.5402 25.9297C27.5367 25.9297 26.7492 26.7172 25.793 27.677Z" fill="#C1ECEC"/>
<path d="M20.3929 30.9922C20.3929 31.2523 20.3965 31.3613 20.4035 31.2277C20.4105 31.0977 20.4105 30.8867 20.4035 30.7531C20.3965 30.623 20.3929 30.732 20.3929 30.9922Z" fill="#C1ECEC"/>
<path d="M27.6 30.9922C27.6 31.2523 27.6035 31.3613 27.6105 31.2277C27.6176 31.0977 27.6176 30.8867 27.6105 30.7531C27.6035 30.623 27.6 30.732 27.6 30.9922Z" fill="#C1ECEC"/>
<path d="M22.4531 20.4805C22.3828 20.5508 22.3828 20.5965 22.3828 22.9238V25.2969H21.5109C20.5547 25.2969 20.5406 25.3004 20.4281 25.5148C20.298 25.768 20.2558 25.7188 22.1789 27.6418C23.1527 28.6156 23.9719 29.4102 24 29.4102C24.0281 29.4102 24.8472 28.6156 25.8211 27.6418C27.7441 25.7188 27.7019 25.768 27.5718 25.5148C27.4593 25.3004 27.4453 25.2969 26.489 25.2969H25.6172L25.6101 22.9027C25.5996 20.5789 25.5961 20.5086 25.5328 20.4594C25.4765 20.4172 25.2058 20.4102 23.9929 20.4102C22.5691 20.4102 22.5199 20.4137 22.4531 20.4805Z" fill="#ECECEC"/>
<path d="M20.4562 30.4367C20.4281 30.4648 20.4141 30.6406 20.4141 30.9992C20.4141 31.4738 20.4211 31.5195 20.4809 31.5547C20.5758 31.6039 27.4242 31.6039 27.5191 31.5547C27.5789 31.5195 27.5859 31.4738 27.5859 30.9992C27.5859 30.6406 27.5719 30.4648 27.5437 30.4367C27.484 30.377 20.516 30.377 20.4562 30.4367Z" fill="#ECECEC"/>
</g>
<mask id="path-13-inside-1_55121_1000" fill="white">
<path d="M42.1359 51C47.0489 48.5587 51.1455 44.8211 53.9509 40.2205C56.7562 35.6199 58.1555 30.3447 57.9863 25.0065C57.8171 19.6683 56.0865 14.4859 52.995 10.0599C49.9036 5.63399 45.578 2.14587 40.5197 0L40 1.14515C44.8344 3.19605 48.9686 6.52976 51.9232 10.7598C54.8778 14.9898 56.5318 19.9429 56.6935 25.0448C56.8552 30.1467 55.5179 35.1884 52.8367 39.5854C50.1555 43.9824 46.2402 47.5546 41.5447 49.8878L42.1359 51Z"/>
</mask>
<path d="M42.1359 51L35.9549 54.2856L39.1517 60.2995L45.2509 57.2687L42.1359 51ZM40.5197 0L43.2535 -6.4441L36.9673 -9.11088L34.1454 -2.89279L40.5197 0ZM40 1.14515L33.6257 -1.74764L30.6602 4.7868L37.2662 7.58926L40 1.14515ZM41.5447 49.8878L38.4297 43.619L31.9868 46.8206L35.3637 53.1734L41.5447 49.8878ZM45.2509 57.2687C51.3234 54.2512 56.4217 49.614 59.9274 43.8648L47.9744 36.5761C45.8693 40.0283 42.7743 42.8662 39.021 44.7313L45.2509 57.2687ZM59.9274 43.8648C63.4347 38.1131 65.1955 31.4962 64.9828 24.7848L50.9898 25.2282C51.1155 29.1931 50.0778 33.1266 47.9744 36.5761L59.9274 43.8648ZM64.9828 24.7848C64.7701 18.0735 62.594 11.5781 58.7338 6.05153L47.2563 14.0683C49.579 17.3936 50.8641 21.2631 50.9898 25.2282L64.9828 24.7848ZM58.7338 6.05153C54.8753 0.527494 49.4996 -3.79433 43.2535 -6.4441L37.7859 6.4441C41.6564 8.08608 44.9319 10.7405 47.2563 14.0683L58.7338 6.05153ZM34.1454 -2.89279L33.6257 -1.74764L46.3743 4.03794L46.894 2.89279L34.1454 -2.89279ZM37.2662 7.58926C40.9128 9.13625 43.9969 11.6363 46.1845 14.7682L57.6619 6.75141C53.9403 1.42327 48.756 -2.74416 42.7338 -5.29895L37.2662 7.58926ZM46.1845 14.7682C48.3703 17.8976 49.5788 21.5377 49.697 25.2665L63.69 24.8231C63.4848 18.3481 61.3853 12.0821 57.6619 6.75141L46.1845 14.7682ZM49.697 25.2665C49.8152 28.9951 48.8395 32.6951 46.8602 35.941L58.8132 43.2297C62.1963 37.6817 63.8952 31.2983 63.69 24.8231L49.697 25.2665ZM46.8602 35.941C44.8793 39.1895 41.9656 41.862 38.4297 43.619L44.6597 56.1565C50.5147 53.2471 55.4316 48.7752 58.8132 43.2297L46.8602 35.941ZM35.3637 53.1734L35.9549 54.2856L48.3169 47.7144L47.7257 46.6021L35.3637 53.1734Z" fill="#3B945E" mask="url(#path-13-inside-1_55121_1000)"/>
<defs>
<filter id="filter0_b_55121_1000" x="-150" y="-148" width="348" height="348" filterUnits="userSpaceOnUse" color-interpolation-filters="sRGB">
<feFlood flood-opacity="0" result="BackgroundImageFix"/>
<feGaussianBlur in="BackgroundImageFix" stdDeviation="75"/>
<feComposite in2="SourceAlpha" operator="in" result="effect1_backgroundBlur_55121_1000"/>
<feBlend mode="normal" in="SourceGraphic" in2="effect1_backgroundBlur_55121_1000" result="shape"/>
</filter>
<clipPath id="clip0_55121_1000">
<rect width="18" height="18" fill="white" transform="translate(15 17)"/>
</clipPath>
</defs>
</svg>
