<svg width="354" height="126" viewBox="0 0 354 126" fill="none" xmlns="http://www.w3.org/2000/svg">
<path d="M62.0789 123.231C59.4175 123.186 56.7492 123.093 54.1099 122.716C52.7834 122.58 51.4768 122.314 50.1637 122.089C49.8343 122.038 49.5098 121.962 49.1854 121.887L48.2113 121.664C47.5638 121.507 46.9068 121.388 46.2695 121.192L44.3454 120.65L43.8647 120.513L43.3909 120.354L42.4433 120.036L41.4957 119.717L41.0225 119.557L40.557 119.374L38.6952 118.645C36.2415 117.607 33.8215 116.472 31.5235 115.116C26.88 112.485 22.6421 109.17 18.8296 105.439L17.4437 103.995L16.7521 103.271L16.0951 102.516L14.7841 101.003L13.5435 99.4308C13.3391 99.1669 13.1246 98.9108 12.9286 98.6407L12.3465 97.826C11.9619 97.2804 11.5627 96.7449 11.1903 96.1909C10.4766 95.0628 9.7155 93.9632 9.07253 92.7915C7.69886 90.4994 6.55404 88.0788 5.49366 85.6284C5.00613 84.3849 4.48278 83.1542 4.0788 81.8796L3.75567 80.9309C3.64826 80.6148 3.53521 80.2999 3.44988 79.9769L2.8982 78.0498C2.69979 77.411 2.56758 76.7552 2.41154 76.1057C2.26683 75.4535 2.09289 74.8072 1.97175 74.1499C1.7447 72.8332 1.46155 71.5246 1.32043 70.1942C1.23838 69.5309 1.14052 68.8692 1.0716 68.2047L0.91495 66.2056L0.839193 65.2057L0.81144 64.2033L0.756226 62.1983C0.790836 59.5258 0.888418 56.8471 1.25899 54.1961C1.39623 52.8645 1.65281 51.5508 1.88285 50.2329L1.96997 49.7389L2.08127 49.2496L2.30442 48.2715L2.52791 47.2933C2.59892 46.9661 2.6768 46.6411 2.77317 46.3205C3.13807 45.0333 3.47583 43.7375 3.92874 42.4773L4.24827 41.5257C4.3521 41.2075 4.46012 40.891 4.58782 40.5815L5.31971 38.712C5.54915 38.0828 5.85109 37.484 6.11723 36.87L6.52868 35.9542L6.73424 35.4963L6.96071 35.0485L7.87161 33.2593L8.09986 32.8122L8.34898 32.3763L8.84726 31.5047C11.4818 26.8398 14.7939 22.5751 18.5363 18.7453C19.0098 18.2722 19.5003 17.8158 19.9819 17.3504L20.7072 16.6555C20.9546 16.4299 21.2109 16.2141 21.4621 15.9929L22.9775 14.6735L24.5537 13.4273L25.3435 12.8061L26.1607 12.2216C26.7067 11.8339 27.2479 11.4384 27.7984 11.0569L29.4875 9.96794C29.7706 9.78914 30.0469 9.5987 30.336 9.42975L31.206 8.92647C33.5019 7.54083 35.9318 6.3946 38.3858 5.32029C39.6348 4.83493 40.8661 4.30002 42.1452 3.89526C42.7813 3.68452 43.41 3.4496 44.0527 3.25916L45.9858 2.70514C46.6267 2.50694 47.2822 2.36426 47.935 2.21202C48.5887 2.06427 49.2385 1.89681 49.8961 1.76577L51.8755 1.40725C52.2058 1.35114 52.534 1.2801 52.8664 1.23592L53.8638 1.10668L55.8592 0.852049L57.8648 0.694746L58.8676 0.61624L59.8731 0.586088L61.8841 0.530575L125.81 0.377444L253.658 0.081021L285.62 0.00699725L287.618 0.00222387C288.285 0.00222387 288.945 -0.00763319 289.626 0.0141573L291.654 0.0592311C292.331 0.0717681 293.004 0.145198 293.679 0.185197C295.031 0.252957 296.372 0.446392 297.716 0.603105C298.388 0.682207 299.052 0.820105 299.72 0.926073C300.387 1.04249 301.057 1.1404 301.715 1.2998L303.698 1.73711C304.357 1.89054 305.007 2.08515 305.661 2.25739L306.641 2.52395C306.968 2.61231 307.286 2.72783 307.609 2.82872L309.542 3.45467L311.444 4.16838L312.393 4.52897L313.326 4.93225C313.946 5.20418 314.572 5.46328 315.187 5.74625L317.012 6.63997C326.688 11.5225 335.046 18.9794 341.017 28.0445L342.096 29.7692C342.273 30.0588 342.463 30.34 342.628 30.6361L343.127 31.5229C343.454 32.1172 343.806 32.6984 344.111 33.3041L345.025 35.1228C346.186 37.5738 347.252 40.0779 348.076 42.6659L348.4 43.6313C348.511 43.9522 348.59 44.2829 348.686 44.6083L349.24 46.5682C349.405 47.2267 349.55 47.89 349.705 48.5508L349.934 49.5431L350.118 50.5445L350.48 52.549L350.746 54.5686L350.878 55.5784L350.961 56.5934L351.126 58.6237L348.759 58.7542L348.608 56.7999L348.533 55.8226L348.41 54.8504L348.164 52.9057L347.824 50.9753L347.652 50.0105L347.435 49.0547C347.289 48.418 347.152 47.7786 346.997 47.144L346.472 45.2551C346.381 44.9414 346.307 44.6226 346.201 44.3134L345.893 43.3826C345.113 40.8866 344.096 38.4711 342.989 36.104L342.116 34.3473C341.825 33.762 341.487 33.2011 341.176 32.6265L340.699 31.7692C340.541 31.4826 340.358 31.211 340.189 30.9313L339.157 29.2633C333.44 20.4951 325.403 13.2535 316.073 8.49125L314.313 7.61904C313.72 7.34293 313.115 7.09011 312.518 6.82414L311.618 6.42983L310.702 6.07729L308.866 5.37821L307 4.76449C306.688 4.66568 306.381 4.55196 306.065 4.46509L305.118 4.20362C304.486 4.03437 303.859 3.84243 303.222 3.69139L301.305 3.25945C300.669 3.10155 300.021 3.00454 299.376 2.88902C298.73 2.78395 298.088 2.64603 297.438 2.56693C296.137 2.41022 294.84 2.21501 293.531 2.14427C292.877 2.10248 292.225 2.02754 291.569 2.01262L289.604 1.96009C288.953 1.93532 288.282 1.94187 287.617 1.93888L285.62 1.93411L253.657 1.86009L125.809 1.56368L61.8865 1.42039L59.9035 1.46607L58.9121 1.49113L57.923 1.56427L55.9449 1.70994L53.9763 1.95202L52.9919 2.07471C52.664 2.1165 52.34 2.18516 52.0139 2.23919L50.0602 2.58365C49.4113 2.70992 48.7698 2.87261 48.1239 3.01499C47.4791 3.16245 46.8316 3.29975 46.1985 3.49258L44.2884 4.03048C43.6535 4.21555 43.0323 4.44479 42.4033 4.64956C41.1389 5.04298 39.9215 5.56567 38.686 6.03909C36.2588 7.08891 33.8531 8.20919 31.579 9.56796L30.717 10.0611C30.4306 10.2267 30.157 10.4139 29.8762 10.5891L28.2018 11.6575C27.6561 12.0321 27.1196 12.4204 26.5781 12.8013L25.7675 13.375L24.984 13.9854L23.42 15.2102L21.9156 16.5081C21.6658 16.7257 21.4114 16.9379 21.1658 17.1597L20.4452 17.8439C19.967 18.3021 19.4797 18.751 19.0089 19.217C15.2898 22.9882 11.9911 27.1941 9.36102 31.8017L8.86365 32.6626L8.61482 33.093L8.3869 33.5348L7.47658 35.3031L7.24982 35.7458L7.04393 36.1983L6.63219 37.1037C6.36575 37.7105 6.06351 38.3025 5.83347 38.9251L5.0998 40.7743C4.9715 41.0803 4.86321 41.3937 4.75879 41.7086L4.43802 42.6501C3.98332 43.8973 3.6429 45.1802 3.27502 46.4548C3.17775 46.7721 3.09929 47.0942 3.02739 47.418L2.8015 48.387L2.57565 49.3562L2.46318 49.841L2.37457 50.3305C2.14065 51.6365 1.87958 52.9385 1.73756 54.2591C1.35745 56.8877 1.24854 59.5458 1.20169 62.1992L1.24733 64.1902L1.27002 65.1857L1.34072 66.1788L1.48691 68.165C1.55225 68.8256 1.64656 69.4829 1.72503 70.1423C1.859 71.4646 2.13436 72.7655 2.35396 74.0753C2.47092 74.729 2.64101 75.3717 2.78183 76.0206C2.934 76.6669 3.06199 77.3194 3.25622 77.9552L3.79566 79.8731C3.8789 80.1948 3.9899 80.508 4.09522 80.8229L4.41238 81.7673C4.80801 83.0366 5.32298 84.2625 5.80186 85.5016C6.84523 87.9433 7.97276 90.357 9.32912 92.6441C9.96344 93.8133 10.7159 94.9109 11.4212 96.0371C11.7894 96.5902 12.1844 97.1252 12.5649 97.6702L13.1404 98.4842C13.3344 98.7541 13.5468 99.0102 13.7491 99.2738L14.9771 100.845L16.2759 102.358L16.9269 103.113L17.6126 103.837L18.9869 105.283C22.7683 109.018 26.9779 112.343 31.5978 114.989C33.8838 116.352 36.2931 117.496 38.7379 118.543L40.5928 119.28L41.0565 119.464L41.5282 119.627L42.4728 119.949L43.4175 120.271L43.8898 120.433L44.3689 120.572L46.288 121.122C46.9238 121.321 47.5793 121.442 48.2253 121.602L49.1974 121.829C49.5211 121.906 49.8451 121.983 50.1739 122.036C51.4846 122.266 52.7894 122.539 54.1141 122.68C56.751 123.068 59.4175 123.173 62.0789 123.231Z" fill="#3B945E"/>
<path d="M346.334 58.6246C346.397 60.607 348.054 62.1634 350.036 62.101C352.017 62.0386 353.573 60.3804 353.51 58.3981C353.448 56.416 351.791 54.8593 349.809 54.9217C347.828 54.9844 346.272 56.6426 346.334 58.6246Z" fill="#3B945E"/>
<path d="M288.933 123.231L288.784 123.238C288.781 123.238 288.778 123.235 288.777 123.232C288.777 123.228 288.78 123.225 288.783 123.225H288.784L288.933 123.231Z" fill="#3B945E"/>
<path d="M273.957 123.75L273.66 123.759C273.369 123.769 273.125 123.54 273.116 123.248C273.107 122.956 273.336 122.712 273.627 122.703C273.638 122.703 273.65 122.703 273.66 122.703L273.957 122.712C274.243 122.721 274.468 122.961 274.459 123.247C274.451 123.523 274.228 123.741 273.957 123.75Z" fill="#3B945E"/>
<path d="M258.834 124.146L258.537 124.152C258.029 124.162 257.608 123.758 257.598 123.25C257.588 122.741 257.991 122.321 258.499 122.31C258.511 122.31 258.526 122.31 258.537 122.31L258.834 122.316C259.338 122.327 259.739 122.744 259.729 123.25C259.719 123.742 259.32 124.135 258.834 124.146Z" fill="#3B945E"/>
<path d="M243.71 124.454L243.414 124.459C242.736 124.47 242.178 123.929 242.167 123.251C242.156 122.572 242.697 122.014 243.375 122.004C243.386 122.003 243.403 122.004 243.414 122.004L243.71 122.008C244.385 122.019 244.924 122.575 244.913 123.251C244.903 123.912 244.367 124.443 243.71 124.454Z" fill="#3B945E"/>
<path d="M228.587 124.677L228.29 124.681C227.49 124.693 226.831 124.053 226.819 123.253C226.808 122.452 227.447 121.793 228.247 121.781C228.259 121.781 228.278 121.781 228.29 121.781L228.587 121.786C229.385 121.798 230.022 122.454 230.01 123.253C229.999 124.036 229.364 124.665 228.587 124.677Z" fill="#3B945E"/>
<path d="M213.463 124.837L213.166 124.84C212.278 124.848 211.552 124.134 211.544 123.246C211.537 122.357 212.25 121.631 213.138 121.623C213.145 121.623 213.16 121.623 213.166 121.623L213.463 121.626C214.349 121.633 215.062 122.359 215.054 123.246C215.046 124.122 214.336 124.829 213.463 124.837Z" fill="#3B945E"/>
<path d="M198.339 124.954L198.043 124.955C197.091 124.958 196.318 124.188 196.315 123.236C196.312 122.284 197.081 121.51 198.033 121.508H198.043L198.339 121.509C199.29 121.511 200.059 122.285 200.056 123.236C200.054 124.184 199.286 124.951 198.339 124.954Z" fill="#3B945E"/>
<path d="M183.216 124.998L182.919 124.999C181.944 125.002 181.15 124.213 181.147 123.236C181.144 122.26 181.933 121.466 182.909 121.463H182.919L183.216 121.464C184.192 121.467 184.98 122.26 184.977 123.236C184.975 124.209 184.187 124.995 183.216 124.998Z" fill="#3B945E"/>
<path d="M168.093 125.012L167.796 125.011C166.813 125.009 166.018 124.211 166.02 123.228C166.021 122.245 166.813 121.45 167.796 121.451L168.093 121.45C169.075 121.449 169.873 122.245 169.875 123.228C169.876 124.212 169.081 125.01 168.098 125.012H168.093Z" fill="#3B945E"/>
<path d="M152.969 124.962L152.673 124.961C151.717 124.957 150.947 124.178 150.951 123.223C150.955 122.273 151.725 121.506 152.673 121.501L152.969 121.5C153.925 121.496 154.703 122.267 154.707 123.223C154.712 124.179 153.941 124.958 152.985 124.962L152.969 124.962Z" fill="#3B945E"/>
<path d="M137.846 124.844L137.549 124.841C136.66 124.833 135.946 124.106 135.954 123.217C135.962 122.338 136.674 121.63 137.549 121.621L137.846 121.619C138.736 121.61 139.464 122.326 139.472 123.217C139.48 124.108 138.765 124.836 137.874 124.844C137.868 124.844 137.852 124.844 137.846 124.844Z" fill="#3B945E"/>
<path d="M122.722 124.687L122.426 124.683C121.624 124.671 120.984 124.011 120.996 123.21C121.008 122.423 121.645 121.792 122.426 121.78L122.722 121.776C123.526 121.764 124.187 122.406 124.199 123.21C124.211 124.014 123.569 124.675 122.765 124.687C122.753 124.687 122.734 124.687 122.722 124.687Z" fill="#3B945E"/>
<path d="M107.599 124.464L107.302 124.459C106.625 124.449 106.083 123.891 106.093 123.213C106.103 122.548 106.642 122.014 107.302 122.004L107.599 121.999C108.279 121.989 108.838 122.533 108.849 123.213C108.859 123.894 108.315 124.453 107.635 124.464C107.625 124.464 107.609 124.464 107.599 124.464Z" fill="#3B945E"/>
<path d="M92.475 124.156L92.1784 124.15C91.6712 124.14 91.2687 123.72 91.2791 123.213C91.2893 122.718 91.6894 122.324 92.1784 122.313L92.475 122.307C92.9855 122.296 93.4076 122.702 93.4181 123.213C93.4285 123.723 93.0234 124.146 92.5129 124.156C92.5015 124.156 92.4866 124.156 92.475 124.156Z" fill="#3B945E"/>
<path d="M77.3515 123.762L77.0549 123.753C76.767 123.744 76.5409 123.503 76.5498 123.215C76.5585 122.938 76.7822 122.719 77.0549 122.71L77.3515 122.7C77.6448 122.691 77.8901 122.921 77.8993 123.215C77.9086 123.508 77.6785 123.753 77.3853 123.763C77.3745 123.763 77.3623 123.763 77.3515 123.762Z" fill="#3B945E"/>
<path d="M62.228 123.238L62.0789 123.231L62.228 123.225C62.2316 123.225 62.2343 123.227 62.2346 123.231C62.2346 123.235 62.2322 123.237 62.2286 123.238H62.228Z" fill="#3B945E"/>
</svg>
